<?xml version="1.0" encoding="utf-8"?>
<!-- Generator: Adobe Illustrator 17.0.0, SVG Export Plug-In . SVG Version: 6.00 Build 0)  -->
<!DOCTYPE svg PUBLIC "-//W3C//DTD SVG 1.1//EN" "http://www.w3.org/Graphics/SVG/1.1/DTD/svg11.dtd">
<svg version="1.1" id="Layer_1" xmlns="http://www.w3.org/2000/svg" xmlns:xlink="http://www.w3.org/1999/xlink" x="0px" y="0px"
	 width="49px" height="49.005px" viewBox="0 0 49 49.005" enable-background="new 0 0 49 49.005" xml:space="preserve">
<path d="M12.875,17.939c0.878-0.878,1.852-1.602,2.888-2.174c5.774-3.182,13.179-1.49,16.891,4.138l-4.492,4.49
	c-1.288-2.938-4.486-4.61-7.669-3.898c-1.198,0.268-2.336,0.866-3.266,1.796l-8.609,8.613c-2.614,2.614-2.614,6.866,0,9.481
	s6.866,2.614,9.481,0l2.654-2.654c2.414,0.958,5.002,1.34,7.559,1.15l-5.858,5.858c-5.022,5.022-13.165,5.022-18.187,0
	s-5.022-13.165,0-18.187C4.267,26.551,12.875,17.939,12.875,17.939z M26.548,4.266l-5.858,5.858
	c2.554-0.192,5.144,0.192,7.559,1.148L30.9,8.62c2.614-2.614,6.866-2.614,9.481,0s2.614,6.866,0,9.481l-8.611,8.611
	c-2.622,2.622-6.88,2.6-9.481,0c-0.606-0.606-1.128-1.36-1.454-2.102l-4.492,4.49c0.472,0.716,0.962,1.334,1.592,1.964
	c1.624,1.624,3.692,2.834,6.072,3.408c3.084,0.742,6.388,0.332,9.227-1.234c1.036-0.572,2.01-1.296,2.888-2.174l8.609-8.611
	c5.024-5.022,5.024-13.165,0.002-18.187C39.711-0.755,31.571-0.755,26.548,4.266z"/>
</svg>
