<?xml version="1.0" encoding="utf-8"?>
<!-- Generator: Adobe Illustrator 17.0.0, SVG Export Plug-In . SVG Version: 6.00 Build 0)  -->
<!DOCTYPE svg PUBLIC "-//W3C//DTD SVG 1.1//EN" "http://www.w3.org/Graphics/SVG/1.1/DTD/svg11.dtd">
<svg version="1.1" id="iconmonstr" xmlns="http://www.w3.org/2000/svg" xmlns:xlink="http://www.w3.org/1999/xlink" x="0px" y="0px"
	 width="49px" height="37px" viewBox="0 0 49 37" style="enable-background:new 0 0 49 37;" xml:space="preserve">
<path id="quote-7" d="M22.5,13.05c0,10.282-7.783,21.038-20,23.45l-1.969-4.252c4.43-1.67,8.326-7.484,8.76-11.492
	C4.311,19.973,0.5,15.661,0.5,10.459C0.5,4.095,5.668,0.5,10.898,0.5C16.928,0.5,22.5,5.11,22.5,13.05z M48.5,13.05
	c0,10.282-7.783,21.038-20,23.45l-1.969-4.252c4.43-1.67,8.326-7.484,8.76-11.492c-4.98-0.783-8.791-5.095-8.791-10.297
	c0-6.364,5.168-9.959,10.398-9.959C42.928,0.5,48.5,5.11,48.5,13.05z"/>
</svg>
