<?xml version="1.0" encoding="utf-8"?>
<!-- Generator: Adobe Illustrator 17.0.0, SVG Export Plug-In . SVG Version: 6.00 Build 0)  -->
<!DOCTYPE svg PUBLIC "-//W3C//DTD SVG 1.1//EN" "http://www.w3.org/Graphics/SVG/1.1/DTD/svg11.dtd">
<svg version="1.1" id="Layer_1" xmlns="http://www.w3.org/2000/svg" xmlns:xlink="http://www.w3.org/1999/xlink" x="0px" y="0px"
	 width="31px" height="20px" viewBox="0 0 31 20" enable-background="new 0 0 31 20" xml:space="preserve">
<g transform="translate(0,-952.36218)">
	<path d="M30.5,962.362c-0.009-0.366-0.152-0.73-0.363-0.968l-7.258-8.226c-0.6-0.616-1.486-0.628-2.056-0.121
		c-0.57,0.507-0.628,1.486-0.121,2.056l5.126,5.806H1.952c-0.802,0-1.452,0.65-1.452,1.452s0.65,1.452,1.452,1.452h23.876
		l-5.126,5.806c-0.507,0.57-0.435,1.535,0.121,2.056c0.58,0.545,1.55,0.449,2.056-0.121l7.258-8.226
		C30.395,963.04,30.497,962.751,30.5,962.362z"/>
</g>
</svg>
