<?xml version="1.0" encoding="utf-8"?>
<!-- Generator: Adobe Illustrator 17.0.0, SVG Export Plug-In . SVG Version: 6.00 Build 0)  -->
<!DOCTYPE svg PUBLIC "-//W3C//DTD SVG 1.1//EN" "http://www.w3.org/Graphics/SVG/1.1/DTD/svg11.dtd">
<svg version="1.1" id="Layer_1" xmlns="http://www.w3.org/2000/svg" xmlns:xlink="http://www.w3.org/1999/xlink" x="0px" y="0px"
	 width="31px" height="20px" viewBox="0 0 31 20" enable-background="new 0 0 31 20" xml:space="preserve">
<g transform="translate(0,-952.36218)">
	<path fill="#FFFFFF" d="M0.863,963.33l7.258,8.226c0.507,0.57,1.476,0.665,2.056,0.121c0.556-0.522,0.628-1.486,0.121-2.056
		l-5.126-5.806h23.876c0.802,0,1.452-0.65,1.452-1.452s-0.65-1.452-1.452-1.452H5.172l5.126-5.806
		c0.507-0.57,0.449-1.55-0.121-2.056c-0.57-0.507-1.456-0.495-2.056,0.121l-7.258,8.226c-0.211,0.237-0.354,0.602-0.363,0.968
		C0.503,962.751,0.605,963.04,0.863,963.33z"/>
</g>
</svg>
