<?xml version="1.0" encoding="utf-8"?>
<!-- Generator: Adobe Illustrator 17.0.0, SVG Export Plug-In . SVG Version: 6.00 Build 0)  -->
<!DOCTYPE svg PUBLIC "-//W3C//DTD SVG 1.1//EN" "http://www.w3.org/Graphics/SVG/1.1/DTD/svg11.dtd">
<svg version="1.1" id="Layer_1" xmlns="http://www.w3.org/2000/svg" xmlns:xlink="http://www.w3.org/1999/xlink" x="0px" y="0px"
	 width="478px" height="86px" viewBox="0 0 478 86" enable-background="new 0 0 478 86" xml:space="preserve">
<path fill="#FFFFFF" d="M27.016,8.488h-0.09c-4.41,0-8.782,0.517-13.191,0.517c-4.32,0-9.101-0.204-13.101-0.563v2.34l4,0.27v54.358
	l-4,0.36v2.34c5-0.36,8.68-0.541,13.09-0.541c4.32,0,8.91,0.181,12.91,0.541v-2.34l-3-0.271V49.488h4.282
	c16.739,0,23.399-8.936,23.399-20.005C51.314,17.604,44.295,8.488,27.016,8.488z M27.916,47.488h-4.282V11.141l3.491-0.36
	c5.58,0,6.875,3.549,7.055,18.848C34.09,44.299,32.775,47.488,27.916,47.488z M105.633,65.499l3,0.271v2.34c-8-0.721-16-0.721-24,0
	v-2.34c1-0.091,2.288-0.271,3.548-0.271L87.769,32.92c0-2.79-1.255-4.95-4.585-4.95c-3.69,0-6.551,2.34-7.551,3.87v33.659l3,0.271
	v2.34c-8-0.721-16-0.721-24,0v-2.34c1-0.091,2-0.271,3-0.271V11.051c-1,0-2-0.09-3-0.27v-2.34c6,0.63,12.522,0.047,19.001-5.953
	h1.999v27.552c3-3.78,8.295-8.55,16.305-8.55c8.64,0,13.695,5.49,13.695,15.839V65.499z M114.854,9.341c0-5.04,4.05-8.91,9.18-8.91
	c5.04,0,9.18,3.87,9.18,8.91c0,5.13-4.14,9.089-9.18,9.089C118.904,18.431,114.854,14.471,114.854,9.341z M133.633,65.499l3,0.271
	v2.34c-8-0.721-16-0.721-24,0v-2.34c1-0.091,2-0.271,3-0.271V26.081c-1,0-2-0.09-3-0.27v-2.34c6,0.27,12.48,0.018,18.96-1.982h2.04
	V65.499z M161.633,65.499l4,0.271v2.34c-9-0.721-17-0.721-25,0v-2.34c1-0.091,2-0.271,4-0.271V11.051c-2,0-3-0.09-4-0.27v-2.34
	c6,0.63,12.83,0.047,19.309-5.953h1.691V65.499z M192.792,21.131c-14.579,0-23.849,9.359-23.849,23.939
	c0,14.489,9.27,23.579,23.849,23.579c14.489,0,23.669-9.089,23.669-23.579C216.461,30.49,207.281,21.131,192.792,21.131z
	 M192.792,66.669c-4.68,0-6.03-3.87-6.03-21.599c0-18.179,1.35-22.049,6.03-22.049s5.85,3.87,5.85,22.049
	C198.642,62.799,197.472,66.669,192.792,66.669z M257.77,54.103c0,9.09-5.939,14.973-19.079,14.973
	c-7.109,0-10.979-2.308-13.409-3.118l-0.18,2.529h-2.52c0.27-3,0.54-5.665,0.54-8.365c0-2.88-0.27-5.635-0.54-8.635h2.52
	c0,0,0.54,2.865,0.54,4.485c0,3.42,3.96,11.037,12.059,11.037c3.6,0,5.76-2.647,5.76-5.707c0-10.709-22.049-9.874-22.049-25.173
	c0-9.18,5.669-15.018,19.169-15.018c5.76,0,9.899,0.775,12.329,1.585l0.09-1.209h2.61l0.022,2.432v0.18
	c0,2.07-0.506,3.999-0.506,6.069c0,2.79,0.123,5.319,0.483,8.319H253c-0.18-1-0.27-1.929-0.359-2.919
	c-0.091-0.09-0.091-0.327-0.091-0.507c0-2.88-2.34-12.095-11.159-12.095c-5.22,0-6.479,2.817-6.479,5.697
	C234.912,39.373,257.77,37.274,257.77,54.103z M286.121,21.131c-14.58,0-23.85,9.359-23.85,23.939
	c0,14.489,9.27,23.579,23.85,23.579c14.489,0,23.669-9.089,23.669-23.579C309.79,30.49,300.61,21.131,286.121,21.131z
	 M286.121,66.669c-4.681,0-6.03-3.87-6.03-21.599c0-18.179,1.35-22.049,6.03-22.049c4.68,0,5.85,3.87,5.85,22.049
	C291.97,62.799,290.8,66.669,286.121,66.669z M345.523,21.131c-7.29,0-11.89,6.03-11.89,6.03v-5.672h-1.883
	c-6.48,2-13.117,2.252-19.117,1.982v2.34c1,0.18,2,0.27,3,0.27v56.877c-1,0-2,0.181-3,0.271v2.34c8-0.72,16-0.72,24,0v-2.34
	l-3-0.271V62.619c0,0,4.6,6.029,11.89,6.029c10.89,0,17.11-9.899,17.11-23.668v-0.09V44.8
	C362.633,31.03,356.413,21.131,345.523,21.131z M339.081,63.609c-4.949,0-5.448-5.76-5.448-5.76V31.93c0,0,0.499-5.76,5.448-5.76
	c4.95,0,6.12,6.39,6.12,18.719S344.031,63.609,339.081,63.609z M416.633,65.499l4,0.271v2.34c-8-0.721-17-0.721-25,0v-2.34
	c1-0.091,2.469-0.271,3.73-0.271l-0.231-32.579c0-2.79-1.376-4.95-4.706-4.95c-3.689,0-6.792,2.34-7.792,3.87v33.659l4,0.271v2.34
	c-8-0.721-17-0.721-25,0v-2.34c1-0.091,3-0.271,4-0.271V11.051c-1,0-3-0.09-4-0.27v-2.34c7,0.63,13.006,0.047,19.486-5.953h1.514
	v27.552c3-3.78,8.295-8.55,16.305-8.55c8.64,0,13.695,5.49,13.695,15.839V65.499z M463.633,25c-1,0.27-1.908,0.36-3.167,0.45
	l-8.749,26.729l-5.13,15.749c-4.05,11.249-8.279,13.95-14.849,13.95c-3.69,0-6.75-2.791-6.75-6.391c0-3.42,2.609-6.209,6.3-6.209
	c3.06,0,5.579,1.979,6.21,4.949c0,0,0.27,0.899,1.8,0.899c2.159,0,3.96-2.109,3.96-5.618c0-1.439-0.271-2.02-0.271-2.02h-3.6
	L422.581,24.96l-2.947-0.05v-2.25c8,0.72,17,0.72,25,0V25c-1,0.09-2.584,0.27-3.934,0.36l9.655,23.309l7.636-23.219
	c-1.26-0.09-2.357-0.18-3.357-0.45v-2.34c2,0.54,7,0.54,9,0V25z M477.367,60.639c0,4.5-3.689,8.009-8.189,8.009s-8.1-3.51-8.1-8.009
	c0-4.5,3.6-7.92,8.1-7.92S477.367,56.139,477.367,60.639z"/>
</svg>
