<?xml version="1.0" standalone="no"?>
<!DOCTYPE svg PUBLIC "-//W3C//DTD SVG 20010904//EN"
 "http://www.w3.org/TR/2001/REC-SVG-20010904/DTD/svg10.dtd">
<svg version="1.0" xmlns="http://www.w3.org/2000/svg"
 width="700.000000pt" height="700.000000pt" viewBox="0 0 700.000000 700.000000"
 preserveAspectRatio="xMidYMid meet">
<metadata>
Created by potrace 1.11, written by Peter Selinger 2001-2013
</metadata>
<g transform="translate(0.000000,700.000000) scale(0.100000,-0.100000)"
fill="#000000" stroke="none">
<path d="M2793 6983 c-4 -10 -129 -324 -279 -698 l-272 -680 1221 -5 c1341 -6
1243 -1 1377 -63 198 -92 360 -294 397 -497 14 -77 8 -250 -10 -318 -65 -244
-252 -427 -512 -504 -30 -9 -427 -14 -1539 -18 l-1498 -5 -278 -695 -278 -695
1777 -5 c1639 -5 1780 -6 1833 -22 125 -38 240 -108 331 -202 52 -52 119 -166
150 -255 27 -78 30 -98 31 -216 1 -111 -3 -141 -24 -205 -66 -206 -211 -366
-405 -447 -130 -55 -32 -52 -2225 -53 -1113 0 -2027 -3 -2031 -8 -4 -5 -371
-918 -540 -1345 l-19 -47 2523 1 c1480 0 2551 4 2592 10 269 35 472 93 695
197 82 38 321 183 350 212 3 3 28 23 55 45 283 226 513 540 646 884 26 69 76
229 85 276 2 11 6 31 9 45 3 14 8 36 11 50 20 99 31 257 29 420 -2 102 -5 194
-8 206 -3 12 -8 45 -12 75 -23 191 -119 477 -228 678 -45 86 -169 269 -226
336 -28 32 -51 62 -51 65 0 4 15 24 33 46 221 261 372 566 446 901 12 50 24
115 27 145 4 29 9 57 12 62 3 5 6 95 7 200 3 223 -10 354 -55 541 -125 525
-467 999 -929 1287 -78 49 -313 168 -331 168 -6 0 -18 4 -28 10 -52 29 -336
105 -431 115 -25 3 -57 8 -71 12 -14 4 -548 8 -1188 10 -1113 4 -1162 3 -1169
-14z"/>
</g>
</svg>
